<svg width="17" height="18" viewBox="0 0 17 18" fill="none" xmlns="http://www.w3.org/2000/svg">
<path d="M11.5136 9.48954C12.9045 8.58577 13.8318 7.00418 13.8318 5.19665C13.8318 2.33473 11.4364 0 8.5 0C5.56364 0 3.16818 2.33473 3.16818 5.19665C3.16818 7.00418 4.09546 8.58577 5.48636 9.48954C2.24091 10.6946 0 13.7071 0 17.2469C0 17.6987 0.309091 18 0.772727 18C1.23636 18 1.54545 17.6987 1.54545 17.2469C1.54545 13.5565 4.71364 10.4686 8.5 10.4686C12.2864 10.4686 15.4545 13.4812 15.4545 17.2469C15.4545 17.6987 15.7636 18 16.2273 18C16.6909 18 17 17.6234 17 17.2469C17 13.7071 14.6818 10.6946 11.5136 9.48954ZM4.71364 5.27197C4.71364 3.23849 6.41364 1.58159 8.5 1.58159C10.5864 1.58159 12.2864 3.23849 12.2864 5.27197C12.2864 7.30544 10.5864 8.96234 8.5 8.96234C6.41364 8.96234 4.71364 7.30544 4.71364 5.27197Z" fill="#B2B2B2"/>
</svg>
