<svg width="100" height="100" viewBox="0 0 100 100" fill="none" xmlns="http://www.w3.org/2000/svg">
<g clip-path="url(#clip0_1_550)">
<g filter="url(#filter0_d_1_550)">
<path d="M92.8977 69.6001C91.818 69.1885 90.6654 69.0025 89.511 69.0534C89.9626 67.0419 89.6743 64.9351 88.6988 63.1189C87.7234 61.3027 86.1262 59.8989 84.1999 59.1645C82.6594 58.5821 80.9837 58.4559 79.3734 58.8012C77.763 59.1464 76.2863 59.9484 75.1199 61.1112C76.8975 61.1298 78.6184 61.7389 80.0119 62.8428C81.4053 63.9466 82.3921 65.4825 82.8171 67.2086C83.242 68.9348 83.0809 70.7532 82.359 72.3778C81.6372 74.0023 80.3957 75.3407 78.8299 76.1824C77.2641 77.024 75.4629 77.3211 73.7097 77.0269C71.9566 76.7326 70.351 75.8638 69.1457 74.5571C67.9405 73.2504 67.2039 71.58 67.052 69.8088C66.9001 68.0377 67.3414 66.2662 68.3066 64.7734H68.3021C71.4085 59.93 73.315 54.4156 73.8634 48.6878C74.4117 42.96 73.5861 37.1841 71.455 31.8393C69.324 26.4945 65.949 21.735 61.6101 17.9558C57.2712 14.1766 52.0936 11.4868 46.5069 10.1094C40.9202 8.73205 35.0856 8.70696 29.4873 10.0362C23.8889 11.3654 18.6883 14.0107 14.3171 17.7524C9.94586 21.4941 6.53002 26.2244 4.35308 31.5506C2.17614 36.8769 1.30088 42.6455 1.79992 48.3778C2.55811 57.1591 5.78133 65.5476 11.0983 72.5772C16.4153 79.6068 23.6099 84.9915 31.8533 88.1112C40.235 91.2852 49.3518 91.9858 58.12 90.1296C66.8883 88.2733 74.9391 83.9384 81.3155 77.6401C82.5193 76.4723 84.0594 75.7121 85.7186 75.4669C87.3777 75.2217 89.0719 75.5038 90.562 76.2735C92.0521 77.0431 93.2629 78.2613 94.0233 79.7561C94.7837 81.251 95.0554 82.9469 94.7999 84.6045C96.0696 83.7081 97.0715 82.4832 97.6981 81.0609C98.3247 79.6386 98.5525 78.0726 98.357 76.5307C98.1615 74.9889 97.5502 73.5293 96.5885 72.3083C95.6267 71.0874 94.3509 70.1512 92.8977 69.6001Z" fill="#4276FC"/>
</g>
<circle cx="16.5" cy="38.5" r="6.5" fill="white"/>
<circle cx="14" cy="39" r="3" fill="black"/>
<circle cx="37.5" cy="38.5" r="6.5" fill="white"/>
<circle cx="35" cy="39" r="3" fill="black"/>
</g>
<defs>
<filter id="filter0_d_1_550" x="-2.33643" y="9.0575" width="104.761" height="90.0868" filterUnits="userSpaceOnUse" color-interpolation-filters="sRGB">
<feFlood flood-opacity="0" result="BackgroundImageFix"/>
<feColorMatrix in="SourceAlpha" type="matrix" values="0 0 0 0 0 0 0 0 0 0 0 0 0 0 0 0 0 0 127 0" result="hardAlpha"/>
<feOffset dy="4"/>
<feGaussianBlur stdDeviation="2"/>
<feComposite in2="hardAlpha" operator="out"/>
<feColorMatrix type="matrix" values="0 0 0 0 0 0 0 0 0 0 0 0 0 0 0 0 0 0 0.34 0"/>
<feBlend mode="normal" in2="BackgroundImageFix" result="effect1_dropShadow_1_550"/>
<feBlend mode="normal" in="SourceGraphic" in2="effect1_dropShadow_1_550" result="shape"/>
</filter>
<clipPath id="clip0_1_550">
<rect width="100" height="100" fill="white"/>
</clipPath>
</defs>
</svg>
