<svg width="23" height="22" viewBox="0 0 23 22" fill="none" xmlns="http://www.w3.org/2000/svg">
<path d="M14.2173 6.49255C14.2173 7.16291 13.8819 7.854 13.5835 8.25436L11.4546 10.6636L9.34533 8.28436C9.04097 7.80873 8.69188 7.17545 8.69188 6.49255C8.6926 5.76005 8.9839 5.05775 9.50186 4.5398C10.0198 4.02184 10.7221 3.73054 11.4546 3.72982C12.1872 3.73054 12.8895 4.02183 13.4075 4.53977C13.9256 5.05771 14.217 5.76 14.2179 6.49255M7.19242 6.49255C7.19242 7.56436 7.66752 8.44527 8.10115 9.12164L10.6021 12.0551C10.6981 12.1917 10.8256 12.3032 10.9738 12.3802C11.1219 12.4573 11.2864 12.4976 11.4534 12.4979C11.6203 12.4982 11.7849 12.4583 11.9333 12.3818C12.0817 12.3052 12.2095 12.1941 12.3061 12.0578L14.7988 9.13527C15.2428 8.53691 15.7179 7.52836 15.7179 6.49255C15.7179 4.14164 13.8055 2.22982 11.4546 2.22982C9.10424 2.22982 7.19188 4.14218 7.19188 6.49255M10.3642 6.74564C10.3642 6.88891 10.3924 7.03078 10.4472 7.16316C10.5021 7.29553 10.5824 7.41581 10.6837 7.51713C10.785 7.61845 10.9053 7.69882 11.0376 7.75365C11.17 7.80848 11.3119 7.8367 11.4552 7.8367C11.5984 7.8367 11.7403 7.80848 11.8727 7.75365C12.005 7.69882 12.1253 7.61845 12.2266 7.51713C12.3279 7.41581 12.4083 7.29553 12.4631 7.16316C12.5179 7.03078 12.5461 6.88891 12.5461 6.74564C12.546 6.45634 12.4311 6.1789 12.2265 5.97435C12.0219 5.7698 11.7445 5.65489 11.4552 5.65489C11.1659 5.65489 10.8884 5.7698 10.6838 5.97435C10.4792 6.1789 10.3643 6.45634 10.3642 6.74564ZM3.54552 1.63636H15.9721C17.2795 1.63636 18.4446 2.60673 18.539 3.91036C18.5716 4.35649 18.4813 4.80304 18.2778 5.20139C18.0743 5.59975 17.7654 5.93465 17.3848 6.16964C17.1377 6.32345 16.9773 6.58364 16.9773 6.87491C16.9773 7.51473 17.681 7.91127 18.2264 7.57691C18.8919 7.17003 19.4272 6.58124 19.7689 5.88005C20.1107 5.17886 20.2447 4.39452 20.1552 3.61964C19.9206 1.53 18.0584 0 15.9552 0H3.54606C3.43862 -1.60106e-09 3.33222 0.0211629 3.23296 0.0622804C3.13369 0.103398 3.04349 0.163665 2.96752 0.23964C2.89154 0.315615 2.83128 0.405811 2.79016 0.505077C2.74904 0.604343 2.72788 0.710737 2.72788 0.818182C2.72788 0.925627 2.74904 1.03202 2.79016 1.13129C2.83128 1.23055 2.89154 1.32075 2.96752 1.39672C3.04349 1.4727 3.13369 1.53297 3.23296 1.57408C3.33222 1.6152 3.43862 1.63636 3.54606 1.63636M18.8188 13.0909H4.20006C2.91824 13.0909 1.77279 12.1565 1.64788 10.8813C1.61392 10.54 1.65179 10.1954 1.75905 9.86964C1.86631 9.54388 2.0406 9.24419 2.27068 8.98986C2.50076 8.73553 2.78154 8.53219 3.09495 8.39293C3.40837 8.25366 3.74746 8.18157 4.09042 8.18127H5.11315C5.33015 8.18127 5.53825 8.09507 5.69169 7.94163C5.84513 7.78819 5.93133 7.58009 5.93133 7.36309C5.93133 7.14609 5.84513 6.93799 5.69169 6.78455C5.53825 6.63111 5.33015 6.54491 5.11315 6.54491H4.26606C2.16824 6.54491 0.281515 8.04764 0.0306059 10.1302C-0.268849 12.6109 1.66915 14.7273 4.09097 14.7273H18.7092C19.9899 14.7273 21.1364 15.6616 21.2608 16.9364C21.2947 17.2776 21.2567 17.6222 21.1494 17.9479C21.0421 18.2736 20.8679 18.5733 20.6378 18.8276C20.4077 19.0819 20.127 19.2852 19.8136 19.4245C19.5002 19.5638 19.1612 19.636 18.8182 19.6364H1.3637C1.25624 19.6363 1.14983 19.6575 1.05055 19.6986C0.951267 19.7397 0.861055 19.8 0.785065 19.876C0.709076 19.9519 0.648796 20.0421 0.60767 20.1414C0.566544 20.2407 0.545377 20.3471 0.545377 20.4545C0.545377 20.562 0.566544 20.6684 0.60767 20.7677C0.648796 20.867 0.709076 20.9572 0.785065 21.0331C0.861055 21.1091 0.951267 21.1694 1.05055 21.2105C1.14983 21.2516 1.25624 21.2727 1.3637 21.2727H18.6764C20.7546 21.2727 22.6097 19.782 22.8742 17.7202C22.9501 17.1426 22.9019 16.5556 22.7329 15.9981C22.5638 15.4407 22.2778 14.9257 21.894 14.4876C21.5101 14.0494 21.0372 13.6982 20.5068 13.4574C19.9764 13.2166 19.4007 13.0916 18.8182 13.0909" fill="#A5A5A5"/>
</svg>
