<svg width="21" height="26" viewBox="0 0 21 26" fill="none" xmlns="http://www.w3.org/2000/svg">
<path d="M10.4004 0.5C12.9598 0.500099 15.2322 1.46914 17.0117 3.14941L17.3613 3.49512L17.4355 3.56934C19.192 5.39405 20.2998 7.93634 20.2998 10.7422C20.2998 13.618 19.1908 16.1599 17.4355 17.9834L17.3672 18.0518L17.3613 18.0586L10.4014 25.2773L3.44043 17.9912L3.36426 17.915C1.60783 16.0903 0.500026 13.548 0.5 10.7422C0.5 7.93311 1.61014 5.38767 3.37012 3.5625L3.42383 3.50781L3.45801 3.43945L3.4873 3.37891C5.30974 1.582 7.69614 0.5 10.4004 0.5ZM10.4004 5.79492C9.0531 5.79492 7.88961 6.50745 7.12988 7.49512C6.58293 8.1993 6.2735 9.05948 6.27344 10.0576C6.27344 12.3682 8.12221 14.3213 10.4004 14.3213C12.6784 14.3211 14.5264 12.3681 14.5264 10.0576C14.5262 7.74728 12.6783 5.79515 10.4004 5.79492Z" fill="black" stroke="black"/>
</svg>
