<svg width="27" height="27" viewBox="0 0 27 27" fill="none" xmlns="http://www.w3.org/2000/svg">
<path d="M10.125 13.5C10.125 14.3951 10.4806 15.2535 11.1135 15.8865C11.7464 16.5194 12.6049 16.875 13.5 16.875C14.3951 16.875 15.2535 16.5194 15.8865 15.8865C16.5194 15.2535 16.875 14.3951 16.875 13.5C16.875 12.6049 16.5194 11.7464 15.8865 11.1135C15.2535 10.4806 14.3951 10.125 13.5 10.125C12.6049 10.125 11.7464 10.4806 11.1135 11.1135C10.4806 11.7464 10.125 12.6049 10.125 13.5Z" fill="black"/>
<path d="M14.625 4.57762V2.25H12.375V4.57762C10.3952 4.83002 8.55524 5.7327 7.14397 7.14397C5.7327 8.55524 4.83002 10.3952 4.57762 12.375H2.25V14.625H4.57762C4.82984 16.6049 5.73246 18.4449 7.14376 19.8562C8.55506 21.2675 10.3951 22.1702 12.375 22.4224V24.75H14.625V22.4224C16.6049 22.1702 18.4449 21.2675 19.8562 19.8562C21.2675 18.4449 22.1702 16.6049 22.4224 14.625H24.75V12.375H22.4224C22.17 10.3952 21.2673 8.55524 19.856 7.14397C18.4448 5.7327 16.6048 4.83002 14.625 4.57762ZM13.5 20.25C9.77737 20.25 6.75 17.2226 6.75 13.5C6.75 9.77737 9.77737 6.75 13.5 6.75C17.2226 6.75 20.25 9.77737 20.25 13.5C20.25 17.2226 17.2226 20.25 13.5 20.25Z" fill="black"/>
</svg>
