<svg width="35" height="35" viewBox="0 0 35 35" fill="none" xmlns="http://www.w3.org/2000/svg">
<path d="M32.5142 24.36C32.1363 24.216 31.7329 24.1509 31.3289 24.1687C31.4869 23.4647 31.386 22.7273 31.0446 22.0916C30.7032 21.4559 30.1442 20.9646 29.47 20.7076C28.9308 20.5037 28.3443 20.4596 27.7807 20.5804C27.2171 20.7012 26.7002 20.9819 26.292 21.3889C26.9142 21.3954 27.5165 21.6086 28.0042 21.995C28.4919 22.3813 28.8373 22.9189 28.986 23.523C29.1347 24.1272 29.0783 24.7636 28.8257 25.3322C28.5731 25.9008 28.1385 26.3692 27.5905 26.6638C27.0425 26.9584 26.412 27.0624 25.7984 26.9594C25.1848 26.8564 24.6229 26.5523 24.201 26.095C23.7792 25.6376 23.5214 25.053 23.4682 24.4331C23.4151 23.8132 23.5695 23.1932 23.9073 22.6707H23.9058C24.993 20.9755 25.6603 19.0454 25.8522 17.0407C26.0441 15.036 25.7552 13.0144 25.0093 11.1437C24.2634 9.27305 23.0822 7.60723 21.5636 6.28452C20.0449 4.9618 18.2328 4.02035 16.2774 3.53827C14.3221 3.0562 12.28 3.04742 10.3206 3.51265C8.36115 3.97788 6.54094 4.90372 5.01101 6.21332C3.48107 7.52292 2.28553 9.17851 1.5236 11.0427C0.761675 12.9069 0.455331 14.9259 0.629998 16.9322C0.895364 20.0057 2.02349 22.9417 3.88444 25.402C5.7454 27.8624 8.26348 29.747 11.1487 30.8389C14.0823 31.9498 17.2732 32.195 20.342 31.5453C23.4109 30.8956 26.2287 29.3784 28.4604 27.174C28.8818 26.7653 29.4208 26.4992 30.0015 26.4134C30.5822 26.3276 31.1752 26.4263 31.6967 26.6957C32.2183 26.9651 32.642 27.3914 32.9082 27.9146C33.1743 28.4378 33.2694 29.0314 33.18 29.6116C33.6244 29.2978 33.975 28.8691 34.1944 28.3713C34.4137 27.8735 34.4934 27.3254 34.425 26.7857C34.3566 26.2461 34.1426 25.7352 33.806 25.3079C33.4694 24.8806 33.0228 24.5529 32.5142 24.36Z" fill="#4276FC"/>
<circle cx="5.775" cy="13.475" r="2.275" fill="white"/>
<circle cx="6.6501" cy="14.35" r="1.05" fill="black"/>
<circle cx="13.1251" cy="13.475" r="2.275" fill="white"/>
<circle cx="14" cy="14.35" r="1.05" fill="black"/>
</svg>
