<svg width="87" height="32" viewBox="0 0 87 32" fill="none" xmlns="http://www.w3.org/2000/svg">
<rect width="87" height="32" rx="16" fill="white" fill-opacity="0.596637"/>
<rect x="0.25" y="0.25" width="86.5" height="31.5" rx="15.75" stroke="#979797" stroke-opacity="0.201002" stroke-width="0.5"/>
<path d="M65.1667 7.33337C69.8612 7.33337 73.6667 11.139 73.6667 15.8334C73.6667 20.5278 69.8612 24.3334 65.1667 24.3334C60.4723 24.3334 56.6667 20.5278 56.6667 15.8334C56.6667 11.139 60.4723 7.33337 65.1667 7.33337ZM65.1667 9.33337C61.5769 9.33337 58.6667 12.2435 58.6667 15.8334C58.6667 19.4232 61.5769 22.3334 65.1667 22.3334C68.7566 22.3334 71.6667 19.4232 71.6667 15.8334C71.6667 12.2435 68.7566 9.33337 65.1667 9.33337ZM65.1667 12.8334C66.8233 12.8334 68.1667 14.1762 68.1667 15.8334C68.1667 17.49 66.8233 18.8334 65.1667 18.8334C63.5101 18.8334 62.1667 17.49 62.1667 15.8334C62.1667 14.1762 63.5101 12.8334 65.1667 12.8334Z" fill="black"/>
<rect x="43.5" y="6.5" width="0.5" height="18.5" fill="black" fill-opacity="0.198907"/>
<path d="M22.75 13C24.5449 13 26 14.4551 26 16.25C26 18.0449 24.5449 19.5 22.75 19.5C20.9551 19.5 19.5 18.0449 19.5 16.25C19.5 14.4551 20.9551 13 22.75 13ZM15.5 14.5C16.6044 14.5 17.5 15.3952 17.5 16.5C17.5 17.6044 16.6044 18.5 15.5 18.5C14.3956 18.5 13.5 17.6044 13.5 16.5C13.5 15.3952 14.3956 14.5 15.5 14.5ZM30 14.5C31.1044 14.5 32 15.3952 32 16.5C32 17.6044 31.1044 18.5 30 18.5C28.8956 18.5 28 17.6044 28 16.5C28 15.3952 28.8956 14.5 30 14.5Z" fill="black"/>
</svg>
