<svg width="87" height="32" viewBox="0 0 87 32" fill="none" xmlns="http://www.w3.org/2000/svg">
<rect width="87" height="32" rx="16" fill="white" fill-opacity="0.596637"/>
<rect x="0.25" y="0.25" width="86.5" height="31.5" rx="15.75" stroke="#979797" stroke-opacity="0.201002" stroke-width="0.5"/>
<path d="M65.1666 7.3335C69.861 7.3335 73.6666 11.1391 73.6666 15.8335C73.6666 20.5279 69.861 24.3335 65.1666 24.3335C60.4722 24.3335 56.6666 20.5279 56.6666 15.8335C56.6666 11.1391 60.4722 7.3335 65.1666 7.3335ZM65.1666 9.3335C61.5768 9.3335 58.6666 12.2436 58.6666 15.8335C58.6666 19.4233 61.5768 22.3335 65.1666 22.3335C68.7565 22.3335 71.6666 19.4233 71.6666 15.8335C71.6666 12.2436 68.7565 9.3335 65.1666 9.3335ZM65.1666 12.8335C66.8232 12.8335 68.1666 14.1763 68.1666 15.8335C68.1666 17.4901 66.8232 18.8335 65.1666 18.8335C63.51 18.8335 62.1666 17.4901 62.1666 15.8335C62.1666 14.1763 63.51 12.8335 65.1666 12.8335Z" fill="black"/>
<rect x="43.5" y="6.5" width="0.5" height="18.5" fill="black" fill-opacity="0.198907"/>
<path d="M22.75 13C24.5449 13 26 14.4551 26 16.25C26 18.0449 24.5449 19.5 22.75 19.5C20.9551 19.5 19.5 18.0449 19.5 16.25C19.5 14.4551 20.9551 13 22.75 13ZM15.5 14.5C16.6044 14.5 17.5 15.3952 17.5 16.5C17.5 17.6044 16.6044 18.5 15.5 18.5C14.3956 18.5 13.5 17.6044 13.5 16.5C13.5 15.3952 14.3956 14.5 15.5 14.5ZM30 14.5C31.1044 14.5 32 15.3952 32 16.5C32 17.6044 31.1044 18.5 30 18.5C28.8956 18.5 28 17.6044 28 16.5C28 15.3952 28.8956 14.5 30 14.5Z" fill="black"/>
</svg>
